<?xml version="1.0" encoding="UTF-8"?>
<svg xmlns="http://www.w3.org/2000/svg" xmlns:xlink="http://www.w3.org/1999/xlink" width="416.32pt" height="219.71pt" viewBox="0 0 416.32 219.71" version="1.1">
<defs>
<clipPath id="clip1">
  <path d="M 0 192 L 41 192 L 41 219.710938 L 0 219.710938 Z M 0 192 "/>
</clipPath>
<clipPath id="clip2">
  <path d="M 42 192 L 80 192 L 80 219.710938 L 42 219.710938 Z M 42 192 "/>
</clipPath>
<clipPath id="clip3">
  <path d="M 79 192 L 120 192 L 120 219.710938 L 79 219.710938 Z M 79 192 "/>
</clipPath>
<clipPath id="clip4">
  <path d="M 112 192 L 153 192 L 153 219.710938 L 112 219.710938 Z M 112 192 "/>
</clipPath>
<clipPath id="clip5">
  <path d="M 153 192 L 191 192 L 191 219.710938 L 153 219.710938 Z M 153 192 "/>
</clipPath>
<clipPath id="clip6">
  <path d="M 192 192 L 233 192 L 233 219.710938 L 192 219.710938 Z M 192 192 "/>
</clipPath>
<clipPath id="clip7">
  <path d="M 234 192 L 283 192 L 283 219.710938 L 234 219.710938 Z M 234 192 "/>
</clipPath>
<clipPath id="clip8">
  <path d="M 284 192 L 331 192 L 331 219.710938 L 284 219.710938 Z M 284 192 "/>
</clipPath>
<clipPath id="clip9">
  <path d="M 332 192 L 373 192 L 373 219.710938 L 332 219.710938 Z M 332 192 "/>
</clipPath>
<clipPath id="clip10">
  <path d="M 376 192 L 416.320313 192 L 416.320313 219.710938 L 376 219.710938 Z M 376 192 "/>
</clipPath>
<clipPath id="clip11">
  <path d="M 0 0 L 416.320313 0 L 416.320313 180 L 0 180 Z M 0 0 "/>
</clipPath>
</defs>
<g id="surface1">
<g clip-path="url(#clip1)" clip-rule="nonzero">
<path style=" stroke:none;fill-rule:nonzero;fill:rgb(0.799561%,0.799561%,0.799561%);fill-opacity:1;" d="M 23 215.003906 C 25.371094 215.003906 27.21875 214.628906 28.550781 213.878906 C 29.886719 213.128906 30.550781 212.1875 30.550781 211.046875 C 30.550781 209.824219 29.898438 208.9375 28.589844 208.382813 C 27.28125 207.828125 25.46875 207.550781 23.148438 207.550781 L 9.96875 207.550781 L 9.96875 215.003906 Z M 9.96875 196.847656 L 9.96875 202.84375 L 22.925781 202.84375 C 27.074219 202.84375 29.144531 201.84375 29.144531 199.847656 C 29.144531 198.789063 28.613281 198.027344 27.554688 197.554688 C 26.492188 197.082031 24.753906 196.847656 22.335938 196.847656 Z M 0.0507813 219.710938 L 0.0507813 192.058594 L 24.257813 192.058594 C 29.09375 192.058594 32.773438 192.730469 35.289063 194.078125 C 37.808594 195.425781 39.066406 197.265625 39.066406 199.597656 C 39.066406 200.789063 38.496094 201.851563 37.363281 202.78125 C 36.226563 203.710938 34.796875 204.371094 33.070313 204.761719 C 34.105469 204.980469 35.078125 205.265625 35.992188 205.613281 C 36.90625 205.960938 37.695313 206.402344 38.363281 206.945313 C 39.027344 207.488281 39.558594 208.125 39.953125 208.859375 C 40.347656 209.597656 40.546875 210.464844 40.546875 211.464844 C 40.546875 213.992188 39.039063 215.996094 36.03125 217.480469 C 33.019531 218.96875 28.40625 219.710938 22.1875 219.710938 L 0.0507813 219.710938 "/>
</g>
<g clip-path="url(#clip2)" clip-rule="nonzero">
<path style=" stroke:none;fill-rule:nonzero;fill:rgb(0.799561%,0.799561%,0.799561%);fill-opacity:1;" d="M 42.246094 219.710938 L 42.246094 192.101563 L 78.375 192.101563 L 78.375 196.890625 L 52.242188 196.890625 L 52.242188 202.804688 L 76.304688 202.804688 L 76.304688 207.675781 L 52.242188 207.675781 L 52.242188 214.796875 L 79.558594 214.796875 L 79.558594 219.710938 L 42.246094 219.710938 "/>
</g>
<g clip-path="url(#clip3)" clip-rule="nonzero">
<path style=" stroke:none;fill-rule:nonzero;fill:rgb(0.799561%,0.799561%,0.799561%);fill-opacity:1;" d="M 94.664063 219.710938 L 94.664063 196.890625 L 79.855469 196.890625 L 79.855469 192.101563 L 119.835938 192.101563 L 119.835938 196.890625 L 104.953125 196.890625 L 104.953125 219.710938 L 94.664063 219.710938 "/>
</g>
<g clip-path="url(#clip4)" clip-rule="nonzero">
<path style=" stroke:none;fill-rule:nonzero;fill:rgb(0.799561%,0.799561%,0.799561%);fill-opacity:1;" d="M 126.898438 219.710938 L 126.898438 196.890625 L 112.09375 196.890625 L 112.09375 192.101563 L 152.070313 192.101563 L 152.070313 196.890625 L 137.1875 196.890625 L 137.1875 219.710938 L 126.898438 219.710938 "/>
</g>
<g clip-path="url(#clip5)" clip-rule="nonzero">
<path style=" stroke:none;fill-rule:nonzero;fill:rgb(0.799561%,0.799561%,0.799561%);fill-opacity:1;" d="M 153.140625 219.710938 L 153.140625 192.101563 L 189.269531 192.101563 L 189.269531 196.890625 L 163.136719 196.890625 L 163.136719 202.804688 L 187.195313 202.804688 L 187.195313 207.675781 L 163.136719 207.675781 L 163.136719 214.796875 L 190.453125 214.796875 L 190.453125 219.710938 L 153.140625 219.710938 "/>
</g>
<g clip-path="url(#clip6)" clip-rule="nonzero">
<path style=" stroke:none;fill-rule:nonzero;fill:rgb(0.799561%,0.799561%,0.799561%);fill-opacity:1;" d="M 202.152344 196.847656 L 202.152344 204.175781 L 215.03125 204.175781 C 217.796875 204.175781 219.746094 203.832031 220.882813 203.140625 C 222.015625 202.449219 222.585938 201.582031 222.585938 200.53125 C 222.585938 199.457031 222.027344 198.570313 220.917969 197.882813 C 219.808594 197.191406 217.96875 196.847656 215.402344 196.847656 Z M 220.808594 219.710938 L 220.808594 212.589844 C 220.808594 211.257813 220.265625 210.304688 219.179688 209.734375 C 218.09375 209.167969 216.070313 208.882813 213.109375 208.882813 L 202.152344 208.882813 L 202.152344 219.710938 L 192.15625 219.710938 L 192.15625 192.058594 L 217.105469 192.058594 C 219.375 192.058594 221.4375 192.257813 223.285156 192.660156 C 225.140625 193.0625 226.730469 193.617188 228.0625 194.324219 C 229.394531 195.03125 230.417969 195.875 231.136719 196.859375 C 231.851563 197.847656 232.207031 198.90625 232.207031 200.042969 C 232.207031 201.539063 231.578125 202.863281 230.320313 204.015625 C 229.0625 205.164063 227.246094 205.976563 224.878906 206.445313 C 227.050781 206.835938 228.59375 207.433594 229.507813 208.238281 C 230.417969 209.046875 230.875 210.253906 230.875 211.867188 L 230.875 219.710938 L 220.808594 219.710938 "/>
</g>
<g clip-path="url(#clip7)" clip-rule="nonzero">
<path style=" stroke:none;fill-rule:nonzero;fill:rgb(0.799561%,0.799561%,0.799561%);fill-opacity:1;" d="M 272.632813 219.710938 L 272.632813 200.761719 L 263.449219 219.710938 L 253.234375 219.710938 L 244.128906 200.84375 L 244.128906 219.710938 L 234.578125 219.710938 L 234.578125 192.058594 L 249.679688 192.058594 L 258.5625 212.339844 L 267.449219 192.058594 L 282.253906 192.058594 L 282.253906 219.710938 L 272.632813 219.710938 "/>
</g>
<g clip-path="url(#clip8)" clip-rule="nonzero">
<path style=" stroke:none;fill-rule:nonzero;fill:rgb(0.799561%,0.799561%,0.799561%);fill-opacity:1;" d="M 307.570313 198.261719 L 307.496094 198.261719 L 301.207031 209.300781 L 313.71875 209.300781 Z M 319.789063 219.710938 L 316.679688 214.003906 L 298.539063 214.003906 L 295.0625 219.710938 L 284.179688 219.710938 L 301.722656 192.058594 L 313.644531 192.058594 L 330.96875 219.710938 L 319.789063 219.710938 "/>
</g>
<g clip-path="url(#clip9)" clip-rule="nonzero">
<path style=" stroke:none;fill-rule:nonzero;fill:rgb(0.799561%,0.799561%,0.799561%);fill-opacity:1;" d="M 363.464844 219.710938 L 342.441406 201.136719 L 342.441406 219.710938 L 332.890625 219.710938 L 332.890625 192.058594 L 343.773438 192.058594 L 363.316406 209.839844 L 363.316406 192.058594 L 372.941406 192.058594 L 372.941406 219.710938 L 363.464844 219.710938 "/>
</g>
<g clip-path="url(#clip10)" clip-rule="nonzero">
<path style=" stroke:none;fill-rule:nonzero;fill:rgb(0.799561%,0.799561%,0.799561%);fill-opacity:1;" d="M 406.847656 219.710938 L 385.824219 201.136719 L 385.824219 219.710938 L 376.273438 219.710938 L 376.273438 192.058594 L 387.15625 192.058594 L 406.699219 209.839844 L 406.699219 192.058594 L 416.324219 192.058594 L 416.324219 219.710938 L 406.847656 219.710938 "/>
</g>
<g clip-path="url(#clip11)" clip-rule="nonzero">
<path style=" stroke:none;fill-rule:nonzero;fill:rgb(96.099854%,62.399292%,11.399841%);fill-opacity:1;" d="M 347.863281 22.613281 C 357.894531 22.613281 367.082031 24.164063 375.429688 27.3125 C 383.769531 30.414063 390.953125 34.828125 396.972656 40.5625 C 403.042969 46.296875 407.691406 53.207031 411.070313 61.289063 C 414.394531 69.371094 416.089844 78.394531 416.089844 88.3125 C 416.089844 98.273438 414.394531 107.34375 410.96875 115.429688 C 407.585938 123.507813 402.886719 130.421875 396.8125 136.152344 C 390.796875 141.886719 383.609375 146.304688 375.269531 149.40625 C 366.925781 152.554688 357.789063 154.105469 347.863281 154.105469 C 337.882813 154.105469 328.695313 152.507813 320.351563 149.355469 C 312.007813 146.207031 304.773438 141.695313 298.703125 135.917969 C 292.628906 130.136719 287.878906 123.230469 284.496094 115.144531 C 281.0625 107.0625 279.371094 98.132813 279.371094 88.3125 C 279.371094 78.628906 281.011719 69.796875 284.335938 61.710938 C 287.613281 53.628906 292.3125 46.71875 298.332031 40.9375 C 304.351563 35.160156 311.585938 30.648438 319.980469 27.453125 C 328.378906 24.210938 337.671875 22.613281 347.863281 22.613281 Z M 267.511719 112.609375 C 267.511719 123.605469 262.847656 131.988281 253.472656 137.675781 C 244.09375 143.367188 230.332031 146.191406 212.128906 146.191406 L 156.75 146.191406 L 156.75 30.527344 L 209.441406 30.527344 C 217.503906 30.527344 224.632813 31.210938 230.878906 32.578125 C 237.1875 33.992188 242.449219 35.917969 246.78125 38.484375 C 251.113281 41.050781 254.457031 44.128906 256.761719 47.765625 C 259.0625 51.402344 260.214844 55.464844 260.214844 59.953125 C 260.214844 71.160156 253.085938 79.417969 238.832031 84.765625 C 243.65625 85.707031 247.824219 87.074219 251.5 88.914063 C 255.117188 90.753906 258.132813 92.890625 260.4375 95.371094 C 262.792969 97.8125 264.546875 100.546875 265.753906 103.5 C 266.902344 106.449219 267.511719 109.488281 267.511719 112.609375 Z M 176.160156 78.863281 L 209.277344 78.863281 C 220.300781 78.863281 228.304688 77.535156 233.351563 74.839844 C 238.394531 72.1875 240.914063 67.695313 240.914063 61.367188 C 240.914063 58.585938 240.367188 56.148438 239.21875 53.96875 C 238.117188 51.785156 236.257813 49.988281 233.679688 48.578125 C 231.101563 47.164063 227.699219 46.097656 223.425781 45.324219 C 219.09375 44.597656 213.773438 44.214844 207.359375 44.214844 L 176.160156 44.214844 Z M 176.160156 132.375 L 211.964844 132.375 C 235.433594 132.375 247.167969 125.785156 247.167969 112.566406 C 247.167969 109.148438 246.507813 106.195313 245.246094 103.714844 C 243.933594 101.191406 241.847656 99.136719 238.886719 97.511719 C 235.925781 95.886719 232.085938 94.644531 227.261719 93.878906 C 222.4375 93.0625 216.460938 92.679688 209.386719 92.679688 L 176.160156 92.679688 Z M 69.675781 22.613281 C 79.75 22.613281 88.972656 24.164063 97.347656 27.3125 C 105.722656 30.414063 112.929688 34.828125 118.972656 40.5625 C 125.066406 46.296875 129.730469 53.207031 133.121094 61.289063 C 136.460938 69.371094 138.160156 78.394531 138.160156 88.3125 C 138.160156 98.273438 136.460938 107.34375 133.015625 115.429688 C 129.625 123.507813 124.90625 130.421875 118.8125 136.152344 C 112.769531 141.886719 105.5625 146.304688 97.1875 149.40625 C 88.8125 152.554688 79.644531 154.105469 69.675781 154.105469 C 59.660156 154.105469 50.4375 152.507813 42.0625 149.355469 C 33.6875 146.207031 26.425781 141.695313 20.332031 135.917969 C 14.234375 130.136719 9.464844 123.230469 6.074219 115.144531 C 2.628906 107.0625 0.929688 98.132813 0.929688 88.3125 C 0.929688 78.628906 2.574219 69.796875 5.914063 61.710938 C 9.199219 53.628906 13.917969 46.71875 19.960938 40.9375 C 26.003906 35.160156 33.265625 30.648438 41.691406 27.453125 C 50.117188 24.210938 59.449219 22.613281 69.675781 22.613281 Z M 69.570313 139.628906 C 76.78125 139.628906 83.457031 138.453125 89.5 136.058594 C 95.597656 133.660156 100.738281 130.230469 105.03125 125.8125 C 109.378906 121.347656 112.71875 115.945313 115.101563 109.644531 C 117.488281 103.304688 118.652344 96.160156 118.652344 88.3125 C 118.652344 80.320313 117.488281 73.132813 115.101563 66.835938 C 112.71875 60.488281 109.378906 55.132813 105.03125 50.714844 C 100.738281 46.296875 95.652344 42.914063 89.660156 40.613281 C 83.722656 38.261719 77.152344 37.085938 69.996094 37.085938 C 62.785156 37.085938 56.109375 38.214844 50.066406 40.515625 C 43.96875 42.820313 38.777344 46.15625 34.429688 50.574219 C 30.082031 54.992188 26.691406 60.347656 24.253906 66.691406 C 21.816406 72.988281 20.597656 80.226563 20.597656 88.3125 C 20.597656 96.253906 21.816406 103.441406 24.253906 109.742188 C 26.691406 116.085938 30.03125 121.488281 34.324219 125.953125 C 38.671875 130.371094 43.8125 133.804688 49.800781 136.105469 C 55.84375 138.453125 62.414063 139.628906 69.570313 139.628906 Z M 0 15.070313 L 416.28125 15.070313 L 416.28125 0.00390625 L 0 0.00390625 Z M 0 179.203125 L 416.28125 179.203125 L 416.28125 164.136719 L 0 164.136719 Z M 347.757813 139.628906 C 354.9375 139.628906 361.59375 138.453125 367.609375 136.058594 C 373.6875 133.660156 378.808594 130.230469 383.082031 125.8125 C 387.414063 121.347656 390.742188 115.945313 393.117188 109.644531 C 395.496094 103.304688 396.652344 96.160156 396.652344 88.3125 C 396.652344 80.320313 395.496094 73.132813 393.117188 66.835938 C 390.742188 60.488281 387.414063 55.132813 383.082031 50.714844 C 378.808594 46.296875 373.738281 42.914063 367.769531 40.613281 C 361.859375 38.261719 355.308594 37.085938 348.179688 37.085938 C 340.996094 37.085938 334.347656 38.214844 328.324219 40.515625 C 322.253906 42.820313 317.078125 46.15625 312.746094 50.574219 C 308.417969 54.992188 305.039063 60.347656 302.609375 66.691406 C 300.179688 72.988281 298.96875 80.226563 298.96875 88.3125 C 298.96875 96.253906 300.179688 103.441406 302.609375 109.742188 C 305.039063 116.085938 308.363281 121.488281 312.644531 125.953125 C 316.972656 130.371094 322.09375 133.804688 328.0625 136.105469 C 334.082031 138.453125 340.628906 139.628906 347.757813 139.628906 "/>
</g>
</g>
</svg>
