<?xml version="1.0" standalone="no"?>
<!DOCTYPE svg PUBLIC "-//W3C//DTD SVG 20010904//EN"
 "http://www.w3.org/TR/2001/REC-SVG-20010904/DTD/svg10.dtd">
<svg version="1.0" xmlns="http://www.w3.org/2000/svg"
 width="260.000000pt" height="260.000000pt" viewBox="0 0 260.000000 260.000000"
 preserveAspectRatio="xMidYMid meet">
<metadata>
Created by potrace 1.14, written by Peter Selinger 2001-2017
</metadata>
<g transform="translate(0.000000,260.000000) scale(0.100000,-0.100000)"
fill="#000000" stroke="none">
<path d="M1065 2435 c-30 -29 -31 -41 -5 -57 24 -15 26 -50 5 -68 -8 -7 -15
-18 -15 -25 0 -7 7 -18 15 -25 19 -16 19 -39 0 -60 -15 -17 -11 -50 6 -50 16
0 10 -31 -12 -61 -25 -36 -18 -64 23 -85 32 -17 67 -13 106 12 28 18 29 59 2
74 -24 13 -26 47 -3 72 15 17 15 19 0 36 -21 23 -22 58 -2 66 21 8 19 28 -5
49 -26 22 -25 31 5 55 31 25 32 42 2 70 -33 31 -90 30 -122 -3z"/>
<path d="M1537 2269 c-16 -4 -35 -13 -43 -20 -21 -17 -17 -58 8 -78 21 -18 21
-18 2 -50 -15 -26 -16 -35 -6 -49 24 -34 24 -43 -1 -66 -18 -17 -24 -30 -20
-45 17 -65 136 -68 165 -5 10 22 9 28 -9 42 -31 26 -35 50 -12 73 l20 20 -21
26 c-26 33 -25 37 7 67 25 23 26 26 10 49 -20 31 -63 46 -100 36z"/>
<path d="M647 2132 c-23 -25 -21 -41 5 -69 19 -20 20 -27 10 -41 -24 -33 -25
-45 -7 -74 16 -29 16 -30 -4 -52 -28 -30 -26 -60 5 -85 35 -28 75 -26 108 4
31 29 33 48 6 82 -20 25 -16 52 10 68 6 4 3 16 -9 31 -20 26 -18 56 5 75 19
16 17 43 -4 62 -26 24 -104 23 -125 -1z"/>
<path d="M1970 2099 c-32 -13 -60 -39 -60 -56 0 -7 11 -19 25 -25 31 -14 32
-44 4 -74 l-21 -22 21 -11 c29 -16 26 -51 -6 -77 -26 -20 -26 -22 -11 -46 20
-30 70 -52 101 -45 28 8 67 43 67 62 0 8 -11 26 -25 41 -30 33 -31 40 -5 56
24 15 25 31 5 48 -21 18 -19 49 6 69 28 22 18 56 -21 76 -33 17 -45 18 -80 4z"/>
<path d="M1008 1852 c-116 -76 -195 -126 -335 -214 -114 -72 -148 -107 -125
-130 21 -21 60 -10 143 44 46 30 154 100 240 156 207 134 194 129 271 104 35
-11 144 -46 243 -77 260 -82 279 -88 289 -97 6 -4 19 -8 30 -8 11 0 51 -11 90
-24 39 -13 105 -34 146 -46 41 -12 106 -33 143 -47 83 -31 117 -26 117 16 0
32 -6 35 -125 72 -38 12 -123 39 -188 60 -64 22 -125 39 -135 39 -10 0 -22 4
-28 8 -5 5 -49 21 -99 36 -141 42 -280 86 -406 128 -63 21 -131 38 -150 38
-25 0 -58 -16 -121 -58z"/>
<path d="M1434 1589 c-8 -13 -7 -986 1 -1000 11 -16 54 -10 65 10 11 21 15
957 4 985 -7 18 -59 22 -70 5z"/>
<path d="M886 1542 c-3 -6 -6 -176 -6 -378 -1 -583 -4 -523 27 -530 53 -14 53
-11 51 471 l-3 440 -32 3 c-17 2 -34 -1 -37 -6z"/>
<path d="M1652 1528 c-15 -15 -18 -812 -2 -853 8 -22 14 -24 37 -19 16 4 30 9
33 11 8 8 11 837 2 850 -12 18 -56 25 -70 11z"/>
<path d="M1852 1468 c-16 -16 -17 -709 -2 -739 13 -24 65 -26 74 -3 3 9 6 179
6 379 0 322 -2 364 -16 369 -25 9 -49 7 -62 -6z"/>
<path d="M671 1408 c-11 -29 -14 -572 -3 -612 10 -35 42 -50 69 -31 16 12 18
33 21 247 2 128 -1 274 -5 323 l-8 90 -33 3 c-26 3 -34 -1 -41 -20z"/>
<path d="M2070 1420 c-13 -8 -15 -55 -15 -320 0 -297 1 -312 19 -326 25 -18
31 -18 50 2 14 13 16 57 16 324 0 296 -1 310 -19 320 -24 12 -32 12 -51 0z"/>
<path d="M1186 1238 c-2 -7 -20 -58 -40 -113 -19 -55 -37 -111 -38 -125 -3
-22 1 -25 34 -28 42 -4 53 -21 39 -66 -5 -17 -12 -44 -16 -61 l-6 -30 25 34
c14 19 26 38 26 42 0 4 20 40 45 80 24 39 42 76 39 80 -3 5 -22 9 -42 9 -59 0
-66 9 -58 76 4 33 9 71 12 87 6 27 -13 40 -20 15z"/>
<path d="M551 686 c-25 -30 7 -57 249 -211 44 -28 139 -87 161 -100 9 -5 45
-29 80 -52 35 -24 73 -43 85 -43 11 0 111 29 220 64 109 35 267 85 349 111 83
25 177 55 210 66 33 11 112 35 175 55 163 50 182 59 178 92 -4 37 -38 39 -130
8 -40 -14 -140 -46 -223 -71 -152 -47 -194 -61 -230 -75 -11 -4 -47 -16 -80
-25 -64 -18 -104 -30 -315 -99 -157 -51 -146 -52 -282 37 -46 30 -130 85 -188
123 -214 140 -235 150 -259 120z"/>
</g>
</svg>
